<?xml version="1.0" encoding="UTF-8" standalone="no"?>
<!-- Created with Inkscape (http://www.inkscape.org/) -->

<svg
   xmlns:dc="http://purl.org/dc/elements/1.1/"
   xmlns:cc="http://creativecommons.org/ns#"
   xmlns:rdf="http://www.w3.org/1999/02/22-rdf-syntax-ns#"
   xmlns:svg="http://www.w3.org/2000/svg"
   xmlns="http://www.w3.org/2000/svg"
   xmlns:sodipodi="http://sodipodi.sourceforge.net/DTD/sodipodi-0.dtd"
   xmlns:inkscape="http://www.inkscape.org/namespaces/inkscape"
   version="1.1"
   id="svg2"
   width="180"
   height="180"
   viewBox="0 0 180 180"
   sodipodi:docname="0_favicom.svg"
   inkscape:version="0.92.4 (5da689c313, 2019-01-14)">
  <metadata
     id="metadata8">
    <rdf:RDF>
      <cc:Work
         rdf:about="">
        <dc:format>image/svg+xml</dc:format>
        <dc:type
           rdf:resource="http://purl.org/dc/dcmitype/StillImage" />
        <dc:title />
      </cc:Work>
    </rdf:RDF>
  </metadata>
  <defs
     id="defs6">
    <clipPath
       clipPathUnits="userSpaceOnUse"
       id="clipPath858">
      <rect
         style="opacity:1;fill:#ff1518;fill-opacity:0.5;stroke:#f91212;stroke-width:0;stroke-miterlimit:4;stroke-dasharray:none;stroke-opacity:1"
         id="rect860"
         width="180"
         height="180"
         x="38.941582"
         y="20.872852" />
    </clipPath>
  </defs>
  <sodipodi:namedview
     pagecolor="#ffffff"
     bordercolor="#666666"
     borderopacity="1"
     objecttolerance="10"
     gridtolerance="10"
     guidetolerance="10"
     inkscape:pageopacity="0"
     inkscape:pageshadow="2"
     inkscape:window-width="1920"
     inkscape:window-height="1031"
     id="namedview4"
     showgrid="true"
     inkscape:zoom="2.2471042"
     inkscape:cx="104.47366"
     inkscape:cy="19.341079"
     inkscape:window-x="1920"
     inkscape:window-y="24"
     inkscape:window-maximized="1"
     inkscape:current-layer="svg2"
     showguides="false"
     inkscape:pagecheckerboard="false">
    <inkscape:grid
       type="xygrid"
       id="grid915" />
  </sodipodi:namedview>
  <g
     id="g953"
     transform="matrix(1.005302,0,0,1,-0.33363873,-5.5)"
     style="fill:#547cc7;fill-opacity:1;stroke:#415c93;stroke-opacity:1;stroke-width:0;stroke-miterlimit:4;stroke-dasharray:none">
    <path
       style="fill:#547cc7;fill-opacity:1;stroke:#415c93;stroke-width:0;stroke-opacity:1;stroke-miterlimit:4;stroke-dasharray:none"
       d="M 0.896749,82.97327 V 34.946534 L 15.535203,35.223267 30.173658,35.5 41.808918,54.706972 c 6.399393,10.563834 11.860463,19.217183 12.135711,19.229664 0.275249,0.01248 5.660238,-8.743155 11.966641,-19.456971 L 77.377459,35 h 30.216101 c 27.36468,0 30.81638,0.187753 36.57717,1.989591 14.06554,4.399361 25.71991,13.863746 31.52678,25.602558 3.27749,6.625554 3.71464,8.445177 4.1377,17.222903 0.74828,15.525608 -2.97555,25.414778 -13.44731,35.711258 -6.23758,6.13318 -19.33316,13.05909 -27.43569,14.51001 -3.0658,0.549 -17.25361,0.87792 -31.52846,0.73093 L 81.469473,130.5 81.170413,123.614 80.871353,116.72799 92.165277,97.864 C 98.376933,87.4888 103.82581,79 104.2739,79 c 0.44808,0 0.68006,7.02113 0.51552,15.60252 l -0.29917,15.60252 15.01355,-0.39176 c 12.6737,-0.33071 15.75191,-0.7264 19.75117,-2.53892 6.9124,-3.1328 11.52051,-6.98046 14.5542,-12.15237 3.61534,-6.16355 3.84969,-17.446641 0.49358,-23.764544 -2.92151,-5.499776 -9.37296,-10.875878 -16.04367,-13.369458 -4.91115,-1.835838 -7.38277,-2.002425 -26.08319,-1.758 L 91.517942,56.5 72.579098,88.30017 53.640257,120.10033 46.137325,107.30017 C 42.010713,100.26008 35.4357,89.1 31.526186,82.5 L 24.417979,70.5 24.153077,100.75 23.888175,131 H 12.392462 0.896749 Z"
       id="path967"
       inkscape:connector-curvature="0" />
    <path
       style="fill:#547cc7;fill-opacity:1;stroke:#415c93;stroke-width:0;stroke-opacity:1;stroke-miterlimit:4;stroke-dasharray:none"
       d="M 0.896749,82.5 V 35 h 14.386058 14.386057 l 11.887657,19.493887 c 6.538211,10.721638 12.126134,19.496638 12.417605,19.5 0.291472,0.0034 5.69635,-8.783329 12.010841,-19.52598 l 11.480892,-19.532094 32.028911,0.284082 32.02891,0.284081 6.31338,2.701394 c 13.82544,5.915687 25.02021,16.569819 29.40028,27.980446 2.61792,6.820009 3.49402,19.812774 1.81574,26.927834 -3.65536,15.49683 -15.50969,28.02385 -32.60129,34.4513 C 140.12652,129.94363 139.29365,130 110.47282,130 H 80.969021 v -6.58733 -6.58733 L 92.477689,97.66267 103.98635,78.5 l 0.002,15.83975 0.002,15.83975 15.26378,-0.34004 c 13.94743,-0.31071 15.73852,-0.56339 20.76874,-2.92991 10.89237,-5.12444 15.81022,-11.56774 16.75239,-21.94875 0.99991,-11.023226 -4.57523,-20.263353 -15.75203,-26.106222 -4.28382,-2.239439 -5.60531,-2.368515 -27.0244,-2.639591 L 91.478507,55.929975 72.961794,87.41493 c -10.184192,17.31673 -18.803599,31.50749 -19.154237,31.53502 -0.350638,0.0275 -7.106736,-11.00274 -15.013551,-24.5117 L 24.417979,69.876503 24.153077,99.93825 23.888175,130 H 12.392462 0.896749 Z"
       id="path965"
       inkscape:connector-curvature="0" />
    <path
       style="fill:#547cc7;fill-opacity:1;stroke:#415c93;stroke-width:0;stroke-opacity:1;stroke-miterlimit:4;stroke-dasharray:none"
       d="M 0.896749,82.5 V 35 h 14.308703 14.308703 l 11.895042,19.523302 c 6.542273,10.737816 12.239666,19.400316 12.660874,19.25 C 54.491279,73.622986 59.944192,64.95 66.18766,54.5 l 11.351745,-19 28.488975,-0.267466 c 32.1834,-0.302152 35.44129,0.104565 46.95428,5.861802 19.43011,9.716299 29.34658,27.922228 26.38729,48.445164 -2.30022,15.95213 -11.73808,27.90825 -28.30932,35.86294 l -8.53605,4.09756 -30.27733,0.30406 -30.277326,0.30406 v -7.26227 -7.26226 l 10.759712,-18.00622 10.759714,-18.006227 0.27677,15.301807 0.27676,15.30182 15.73769,-0.33739 c 14.81998,-0.31771 16.06695,-0.49893 21.38429,-3.10785 6.81136,-3.34195 13.32918,-10.11734 14.79035,-15.37483 3.31528,-11.928849 -0.34118,-22.784062 -9.92747,-29.472442 C 137.83079,56.163224 131.79528,55 110.31839,55 H 92.044988 L 74.08771,85.25 c -9.876504,16.6375 -18.561688,31.06796 -19.300407,32.0677 -1.208038,1.63487 -2.802818,-0.66939 -15.856225,-22.9103 L 24.417979,69.679409 24.153077,99.8397 23.888175,130 H 12.392462 0.896749 Z"
       id="path963"
       inkscape:connector-curvature="0" />
    <path
       style="fill:#547cc7;fill-opacity:1;stroke:#415c93;stroke-width:0;stroke-opacity:1;stroke-miterlimit:4;stroke-dasharray:none"
       d="M 1.137174,82.75 1.3972007,35.5 15.409848,35.247726 29.422496,34.995453 41.433337,54.95322 c 6.605962,10.976773 12.236044,19.952848 12.511292,19.946834 0.275249,-0.006 5.808362,-8.985986 12.295808,-19.955494 L 78.035794,35 105.27567,35.0058 c 14.98193,0.0032 29.85427,0.433587 33.04964,0.956447 14.13639,2.313146 30.81005,14.304875 36.69572,26.391636 6.1061,12.53943 6.23294,27.962135 0.33326,40.522037 -3.32409,7.0767 -12.84246,16.56958 -20.83449,20.77871 C 143.21421,129.60888 140.45861,130 109.81356,130 H 81.969924 v -7.08758 -7.08757 L 92.729636,97.90116 103.48935,79.977478 103.76565,94.98874 104.04194,110 h 14.44948 c 12.07777,0 15.34232,-0.33375 19.889,-2.03335 6.7217,-2.51263 14.33748,-9.06205 16.77709,-14.42794 2.15168,-4.73261 2.45042,-13.899872 0.64922,-19.92269 C 154.19797,68.236655 147.46239,61.562391 140.219,58.170182 134.59515,55.536435 134.22417,55.5 113.03078,55.5 H 91.544216 L 72.994643,86.67315 C 62.792385,103.81838 54.219878,118.06487 53.944629,118.33203 53.669381,118.59919 46.913283,107.72127 38.931078,94.15889 L 24.417979,69.5 24.153077,99.75 23.888175,130 H 12.382661 0.87714831 Z"
       id="path961"
       inkscape:connector-curvature="0" />
    <path
       style="fill:#547cc7;fill-opacity:1;stroke:#415c93;stroke-width:0;stroke-opacity:1;stroke-miterlimit:4;stroke-dasharray:none"
       d="M 1.8976524,83 V 36 H 15.829598 29.761544 l 11.841317,19.4743 c 6.512724,10.710865 12.06652,19.474167 12.341768,19.474005 0.275249,-1.62e-4 5.680127,-8.7519 12.010841,-19.448305 l 11.510389,-19.44801 31.255381,-0.026 c 30.7081,-0.02554 31.36876,0.01664 37.73055,2.409055 18.42643,6.929425 30.1789,20.468822 32.60549,37.563016 1.77639,12.513834 -1.64109,25.709029 -9.09315,35.109529 -4.05689,5.11761 -14.16535,12.28167 -22.12707,15.6819 l -6.31338,2.69626 -29.77688,0.32396 -29.776876,0.32397 v -6.99394 -6.99394 l 11.009007,-18.322905 11.009009,-18.3229 9.3e-4,15.25 9.3e-4,15.250005 15.26378,-0.01 c 14.08951,-0.009 15.66928,-0.19839 20.53485,-2.46155 7.70468,-3.58376 11.58093,-6.89417 14.63319,-12.4971 2.21185,-4.06025 2.71543,-6.27893 2.73367,-12.04418 0.0374,-11.828773 -5.05733,-19.248865 -17.0873,-24.886287 -5.3624,-2.51267 -6.28044,-2.610585 -27.07006,-2.886977 L 91.478507,54.927812 72.590609,86.95109 53.702714,118.97437 39.060347,94.04281 24.417979,69.111258 24.153288,99.55563 23.888597,130 H 12.893125 1.8976524 Z"
       id="path959"
       inkscape:connector-curvature="0" />
    <path
       style="fill:#547cc7;fill-opacity:1;stroke:#415c93;stroke-width:0;stroke-opacity:1;stroke-miterlimit:4;stroke-dasharray:none"
       d="M 1.8976524,83 V 36 H 15.75405 29.610449 L 41.522881,55.5 C 48.074719,66.225 53.684557,75 53.989188,75 54.29382,75 59.700694,66.223881 66.004464,55.497514 L 77.465859,35.995027 110.07381,36.247514 142.68175,36.5 l 8.55829,4.238517 c 20.2529,10.030315 28.45142,23.28027 27.65784,44.698943 -0.3373,9.10387 -0.7294,10.89328 -3.71431,16.95104 -4.22885,8.58225 -11.69869,16.08649 -20.68295,20.77818 C 142.08009,129.65284 139.7844,130 109.3131,130 H 81.969924 v -6.75797 -6.75797 L 92.970383,97.99203 103.97084,79.5 l 0.009,15.87375 0.009,15.87375 14.76332,-0.50423 c 16.70681,-0.57062 21.04712,-1.70472 28.71778,-7.50381 8.94115,-6.75959 12.41398,-18.67351 8.64433,-29.655323 -1.97525,-5.754298 -8.16604,-11.886169 -15.34475,-15.198706 -6.19785,-2.860358 -6.43918,-2.887898 -27.77161,-3.169384 L 91.478507,54.932094 73.067349,85.99636 C 62.941219,103.0817 54.323458,117.26608 53.916773,117.5172 53.510088,117.76832 46.706488,106.92 38.797663,93.40982 L 24.417979,68.845852 24.153288,99.42293 23.888597,130 H 12.893125 1.8976524 Z"
       id="path957"
       inkscape:connector-curvature="0" />
    <path
       style="fill:#547cc7;fill-opacity:1;stroke:#415c93;stroke-width:0;stroke-opacity:1;stroke-miterlimit:4;stroke-dasharray:none"
       d="M 12.14207,129.25394 22.88694,128.93264 23.167479,99.21632 23.448018,69.5 23.682772,99.75 23.917527,130 12.657364,129.78762 1.3972007,129.57524 Z m 70.023891,-6.50394 0.196037,-7.25 0.349786,6.73401 0.349776,6.73401 27.22926,0.28274 27.22924,0.28275 -27.77507,0.23324 L 81.969924,130 Z m 48.660559,-12.43311 c 0.72252,-0.28887 1.5858,-0.25335 1.9184,0.0789 0.33259,0.33229 -0.25857,0.56864 -1.31368,0.52522 -1.166,-0.048 -1.40317,-0.28494 -0.60472,-0.60416 z M 102.79143,95.8987 c -0.16664,-7.75571 0.0279,-14.618209 0.43237,-15.249996 0.40444,-0.631787 0.74225,5.713796 0.75068,14.101296 0.008,8.3875 -0.18614,15.25 -0.43237,15.25 -0.24624,0 -0.58404,-6.34558 -0.75068,-14.1013 z m 75.34424,-5.48203 c 0.048,-1.16495 0.2852,-1.4019 0.60471,-0.60417 0.28913,0.72187 0.25358,1.58437 -0.079,1.91667 -0.3326,0.33229 -0.56916,-0.25834 -0.5257,-1.3125 z M 157.1167,77.416667 c 0.048,-1.164943 0.2852,-1.4019 0.60471,-0.604167 0.28913,0.721875 0.25358,1.584375 -0.079,1.916667 -0.3326,0.332291 -0.56916,-0.258334 -0.5257,-1.3125 z M 150.46884,64.75 147.5291,61.5 l 3.25293,2.937091 c 3.0322,2.737781 3.713,3.562909 2.93975,3.562909 -0.17226,0 -1.63608,-1.4625 -3.25294,-3.25 z M 101.23731,54.254498 c 5.36735,-0.179807 14.15028,-0.179807 19.51762,0 5.36735,0.179807 0.97588,0.326922 -9.75881,0.326922 -10.73469,0 -15.12615,-0.147115 -9.75881,-0.326922 z M 165.49827,50.75 l -3.95653,-4.25 4.25384,3.952948 C 169.75161,54.12915 170.50937,55 169.75211,55 c -0.16353,0 -2.07776,-1.9125 -4.25384,-4.25 z M 137.83285,36.316886 c 0.72252,-0.288871 1.5858,-0.253344 1.9184,0.07895 0.33259,0.332292 -0.25858,0.568641 -1.31369,0.52522 -1.166,-0.04798 -1.40317,-0.284941 -0.60471,-0.604167 z"
       id="path955"
       inkscape:connector-curvature="0" />
  </g>
  <path
     style="fill:none;stroke:#ff00a7;stroke-width:7;stroke-linecap:butt;stroke-linejoin:miter;stroke-miterlimit:4;stroke-dasharray:none;stroke-opacity:1"
     d="M 0.271478,148.40893 H 180.94846 v 0 0"
     id="path844"
     inkscape:connector-curvature="0" />
</svg>
